<svg width="16" height="16" viewBox="0 0 16 16" fill="none" xmlns="http://www.w3.org/2000/svg">
<g clip-path="url(#clip0_130_975)">
<path fill-rule="evenodd" clip-rule="evenodd" d="M16 1C16 0.447715 15.5523 0 15 0H1C0.447715 0 0 0.447715 0 1V15C0 15.5523 0.447715 16 1 16H15C15.5523 16 16 15.5523 16 15V13L16.0303 12.9697L16 12.9393V1ZM14.5 1.5V11.4393L12.0303 8.96967L11.9448 8.89601C11.6754 8.6973 11.3001 8.69949 11.0315 8.91435L9.055 10.494L6.03033 7.46967L5.94621 7.39705C5.6526 7.1792 5.23594 7.2034 4.96967 7.46967L1.5 10.9393V1.5H14.5ZM5.5 9.061L1.5 13.0607V14.5H14.5V13.5607L11.444 10.505L9.46852 12.0857C9.19995 12.3005 8.82462 12.3027 8.55525 12.104L8.46967 12.0303L5.5 9.061ZM9.5 3.5C10.8807 3.5 12 4.61929 12 6C12 7.38071 10.8807 8.5 9.5 8.5C8.11929 8.5 7 7.38071 7 6C7 4.61929 8.11929 3.5 9.5 3.5ZM9.5 5C8.94772 5 8.5 5.44772 8.5 6C8.5 6.55228 8.94772 7 9.5 7C10.0523 7 10.5 6.55228 10.5 6C10.5 5.44772 10.0523 5 9.5 5Z" fill="#333E48"/>
</g>
<defs>
<clipPath id="clip0_130_975">
<rect width="16" height="16" fill="white"/>
</clipPath>
</defs>
</svg>
